<?xml version="1.0" encoding="UTF-8" standalone="no"?>
<svg
   xmlns:dc="http://purl.org/dc/elements/1.1/"
   xmlns:cc="http://creativecommons.org/ns#"
   xmlns:rdf="http://www.w3.org/1999/02/22-rdf-syntax-ns#"
   xmlns:svg="http://www.w3.org/2000/svg"
   xmlns="http://www.w3.org/2000/svg"
   xmlns:sodipodi="http://sodipodi.sourceforge.net/DTD/sodipodi-0.dtd"
   xmlns:inkscape="http://www.inkscape.org/namespaces/inkscape"
   width="23.469999"
   height="23.469999"
   viewBox="0 0 23.469999 23.469999"
   version="1.1"
   id="svg19"
   sodipodi:docname="logoBB.svg"
   inkscape:version="0.92.5 (2060ec1f9f, 2020-04-08)">
  <metadata
     id="metadata25">
    <rdf:RDF>
      <cc:Work
         rdf:about="">
        <dc:format>image/svg+xml</dc:format>
        <dc:type
           rdf:resource="http://purl.org/dc/dcmitype/StillImage" />
      </cc:Work>
    </rdf:RDF>
  </metadata>
  <defs
     id="defs23" />
  <sodipodi:namedview
     pagecolor="#ffffff"
     bordercolor="#666666"
     borderopacity="1"
     objecttolerance="10"
     gridtolerance="10"
     guidetolerance="10"
     inkscape:pageopacity="0"
     inkscape:pageshadow="2"
     inkscape:window-width="2560"
     inkscape:window-height="1044"
     id="namedview21"
     showgrid="false"
     inkscape:zoom="9.754386"
     inkscape:cx="44.78782"
     inkscape:cy="-4.8305719"
     inkscape:window-x="1366"
     inkscape:window-y="0"
     inkscape:window-maximized="1"
     inkscape:current-layer="M.0.2-Menu-usuario" />
  <!-- <title>FB9BED17-6AFB-4AD1-A4C8-F358AABEB9D1</title> -->
  <g
     id="00---Componentes"
     style="fill:none;fill-rule:evenodd;stroke:none;stroke-width:1"
     transform="translate(-1.007916,-1.0007366)">
    <g
       id="M.0.2-Menu-usuario"
       transform="translate(-52,-59)">
      <polygon
         id="Fill-1"
         points="112.34147,0.00063157895 0,0.00063157895 0,23.470737 112.34147,23.470737 "
         style="fill:#fcee4f"
         transform="matrix(0.20891662,0,0,0.99999551,53.007916,60.000105)" />
      <path
         d="m 55.932706,68.826052 3.672631,2.436 4.395158,-2.945684 -1.836,-1.217684 2.377263,-1.597895 5.146105,3.410526 -8.422105,5.646316 1.837895,1.216421 10.433684,-6.995368 -8.816842,-5.844 z m 17.620421,5.821264 -3.674527,-2.436632 -4.392,2.945053 1.834737,1.218315 -2.377895,1.595369 -5.142947,-3.408 8.419579,-5.645684 -1.837895,-1.218316 -10.433684,6.997263 8.819368,5.842105 z m -0.02526,-9.29179 -1.830947,1.227789 -1.836632,-1.217684 3.661264,-2.454316 z m -17.569895,12.760421 1.830947,-1.227789 1.835368,1.217684 -3.66,2.454316 z"
         id="Fill-4"
         inkscape:connector-curvature="0"
         style="fill:#465eff" />
    </g>
  </g>
</svg>
