<?xml version="1.0" encoding="UTF-8"?>
<svg width="114px" height="25px" viewBox="0 0 114 25" version="1.1" xmlns="http://www.w3.org/2000/svg" xmlns:xlink="http://www.w3.org/1999/xlink">
    <!-- <title>FB9BED17-6AFB-4AD1-A4C8-F358AABEB9D1</title> -->
    <g id="00---Componentes" stroke="none" stroke-width="1" fill="none" fill-rule="evenodd">
        <g id="M.0.2-Menu-usuario" transform="translate(-52.000000, -59.000000)">
            <g id="_main/header-logado-notificacao-mobile" transform="translate(0.000000, 48.000000)">
                <g id="Group-24" transform="translate(53.000000, 12.000000)">
                    <polygon id="Fill-1" fill="#FCEE4F" points="0 23.4707368 112.341474 23.4707368 112.341474 0.000631578947 0 0.000631578947"></polygon>
                    <polygon id="Stroke-2" stroke="#465EFF" points="0.000631578947 23.4701053 112.342105 23.4701053 112.342105 -1.42108547e-14 0.000631578947 -1.42108547e-14"></polygon>
                    <path d="M5.86541053,8.93734737 L9.53804211,11.3733474 L13.9332,8.42766316 L12.0972,7.20997895 L14.4744632,5.61208421 L19.6205684,9.02261053 L11.1984632,14.6689263 L13.0363579,15.8853474 L23.4700421,8.88997895 L14.6532,3.04597895 L5.86541053,8.93734737 Z M23.4858316,14.7586105 L19.8113053,12.3219789 L15.4193053,15.2670316 L17.2540421,16.4853474 L14.8761474,18.0807158 L9.7332,14.6727158 L18.1527789,9.02703158 L16.3148842,7.80871579 L5.8812,14.8059789 L14.7005684,20.6480842 L23.4858316,14.7586105 Z M23.4605684,5.46682105 L21.6296211,6.69461053 L19.7929895,5.47692632 L23.4542526,3.02261053 L23.4605684,5.46682105 Z M5.89067368,18.2272421 L7.72162105,16.9994526 L9.55698947,18.2171368 L5.89698947,20.6714526 L5.89067368,18.2272421 Z" id="Fill-4" fill="#465EFF"></path>
                    <g id="Group-23" transform="translate(27.474316, 5.470737)" fill="#465EFF">
                        <path d="M75.4803158,12.0268421 L71.8664211,12.0369474 L71.862,10.5312632 L75.2681053,10.5217895 C75.6426316,10.5211579 75.9312632,10.3923158 76.1396842,10.1365263 C76.3424211,9.88073684 76.446,9.56178947 76.4447368,9.17589474 C76.4434737,8.74515789 76.0285263,8.33147368 75.2036842,7.94305263 L72.9154737,6.87063158 C72.0874737,6.33378947 71.6725263,5.66052632 71.6706156,4.854 C71.6655789,3.08684211 72.8567368,2.19757895 75.246,2.19063158 L78.1803158,2.18242105 L78.1853684,3.80431579 L75.5598947,3.81126316 C74.7337895,3.81378947 74.3226316,4.15926316 74.3245263,4.84705263 C74.3257895,5.32957895 74.7394737,5.75652632 75.5662105,6.12726316 C76.1782105,6.40010526 76.7371579,6.62936842 77.2506316,6.81505263 C77.4558947,6.89336842 77.658,6.96726316 77.8544211,7.03421053 C78.6811579,7.55463158 79.0967368,8.23610526 79.0986513,9.08242105 C79.1017895,10.3575789 78.7253684,11.2001053 77.97,11.6049474 C77.4495789,11.8815789 76.6196842,12.0236842 75.4803158,12.0268421" id="Fill-5"></path>
                        <path d="M67.3265684,3.48138578 C67.9063579,3.48012632 68.2815158,3.80286316 68.4488842,4.4496 C68.5499368,4.83423158 68.6036211,5.73675789 68.6074105,7.16223158 C68.6112,8.5896 68.5625684,9.49402105 68.4640421,9.87738947 C68.3112,10.4868632 67.9379368,10.7919158 67.3461474,10.7938145 C66.7669895,10.7950737 66.3975158,10.4950737 66.2383579,9.8976 C66.1366737,9.51612632 66.0880421,8.60475789 66.0842526,7.16917895 C66.0804632,5.77465263 66.1246737,4.87402105 66.2238316,4.47233684 C66.3792,3.81107368 66.7474105,3.48328421 67.3265684,3.48138578 M67.3505684,12.2679518 C69.0602526,12.2634947 70.1813053,11.7304421 70.7074105,10.6662316 C71.0200421,10.0384421 71.1760421,8.86496842 71.1709895,7.15528421 C71.1659368,5.38812632 71.0042526,4.18749474 70.6878316,3.55844211 C70.1661474,2.52075789 69.0438316,2.00096842 67.3227789,2.00536151 C65.6137263,2.01044211 64.4977263,2.53591579 63.9804632,3.57675789 C63.6583579,4.22791579 63.4992,5.42791579 63.5036211,7.17675789 C63.5086737,8.87823158 63.6741474,10.0466526 63.9994105,10.6839158 C64.5432,11.7456 65.6592,12.2729684 67.3505684,12.2679518" id="Fill-7"></path>
                        <path d="M63.1700842,12.0601263 L61.0321895,7.2576 C62.2031368,7.03781053 62.7867158,6.20665263 62.7829263,4.76033684 C62.7804,3.97465263 62.5568211,3.35633684 62.1197684,2.90602105 C61.6827158,2.45317895 61.0662947,2.22896842 60.2818737,2.23085125 L55.6662947,2.24349474 L55.6928211,12.0803368 L58.2159789,12.0733895 L58.1938737,3.74096842 L59.0180842,3.73844211 C59.4412421,3.73717895 59.7702947,3.87486316 60.0046105,4.14896842 C60.2439789,4.42433684 60.3627158,4.77233684 60.3639789,5.19296842 C60.3646105,5.56875789 60.2869263,5.88896842 60.1290316,6.15423158 C59.9351368,6.45802105 59.6604,6.61275789 59.3073474,6.61338947 L58.6100842,6.61528421 L60.9267158,12.0664421 L63.1700842,12.0601263 Z" id="Fill-9"></path>
                        <path d="M51.8306526,2.25404211 L51.8496,9.20077895 C51.8521263,10.2214105 51.4794947,10.7336211 50.7323368,10.7355158 C49.9750737,10.7374105 49.5961263,10.2277263 49.5929684,9.20709474 L49.5746526,2.26035789 L47.0976,2.26667368 L47.1165474,9.33151579 C47.1197053,10.4803579 47.4405474,11.2799368 48.0790737,11.7308842 C48.6247579,12.1212 49.5070737,12.3169895 50.7367579,12.313254 C51.9367579,12.3100421 52.8146526,12.1066737 53.3742316,11.7024632 C54.0121263,11.2268842 54.3272842,10.4298316 54.3241498,9.31193684 L54.3051789,2.24709474 L51.8306526,2.25404211 Z" id="Fill-11"></path>
                        <path d="M46.0052211,5.22012632 C46.0601684,4.17675789 45.7551158,3.37970526 45.0850105,2.83212632 C44.4837474,2.33317895 43.6488,2.08496842 42.5751158,2.08809656 C40.9443789,2.09254737 39.8542737,2.60728421 39.3079579,3.62917895 C38.9454316,4.29865263 38.7654316,5.50812632 38.7704842,7.2576 C38.7755368,9.20602105 39.0294316,10.5114947 39.5346947,11.1803368 C40.1170105,11.9533895 41.2999579,12.3386526 43.0904842,12.3342692 C43.6513263,12.3323368 44.6018526,12.2173895 45.9483789,11.9868632 L45.9351158,7.12054737 L42.3976421,7.13002105 L42.4020632,8.5896 L43.6418526,8.58581053 L43.6475368,10.7262316 C43.4706947,10.8544421 43.2130105,10.9182316 42.8801684,10.9188632 C42.1140632,10.9207579 41.6245895,10.4906526 41.4174316,9.62538947 C41.3365895,9.28244211 41.2949053,8.53402105 41.2917474,7.38454737 C41.2879579,6.01844211 41.3473263,5.10707368 41.4635368,4.65675789 C41.6384842,3.96770526 42.0092211,3.62223158 42.5789053,3.62096842 C42.9534316,3.61970526 43.2351158,3.80602105 43.4214316,4.17991579 C43.5597474,4.46475789 43.6311158,4.81212632 43.6323789,5.22644211 L46.0052211,5.22012632 Z" id="Fill-13"></path>
                        <polygon id="Fill-15" points="38.2110316 12.1273895 38.2066105 10.6223368 34.6849263 10.6318105 34.6773474 7.85791579 37.8175579 7.84970526 37.8131368 6.37749474 34.6729263 6.38570526 34.6666105 3.92191579 38.0569263 3.91244211 38.0525053 2.29117895 32.1864 2.30696842 32.2129263 12.1438105"></polygon>
                        <path d="M26.9326105,12.1582105 L22.5538737,12.1702105 L22.5494526,10.3986316 L26.6496632,10.3872632 C27.6317684,10.3847368 28.1212421,9.93694737 28.1187158,9.042 C28.1174526,8.48242105 27.6102947,7.962 26.5953474,7.48263158 L23.7766105,6.14936842 C22.7629263,5.48305263 22.2551368,4.64052632 22.2525861,3.618 C22.2488211,2.37757895 22.6865053,1.49778947 23.5713474,0.974210526 C24.2667158,0.568736842 25.2930316,0.366 26.6509263,0.362210526 L30.3084,0.352736842 L30.3134526,2.31189474 L27.0090316,2.32073684 C26.4987158,2.32263158 26.1222947,2.40726316 25.8822947,2.57526316 C25.6429263,2.74263158 25.5241895,3.03315789 25.5248211,3.44368421 C25.5254526,3.74936842 25.6467158,4.05315789 25.8949263,4.35568421 C26.1721895,4.69042105 26.5498737,4.96389474 27.0336632,5.18115789 L29.8397684,6.45631579 C30.8509263,7.09421053 31.3593474,7.89126316 31.3618967,8.85631579 C31.3656632,10.2230526 30.9020842,11.1527368 29.9711368,11.6478947 C29.3420842,11.9826316 28.3284,12.1544211 26.9326105,12.1582105" id="Fill-17"></path>
                        <path d="M14.7617684,2.20717895 C15.1527158,2.21538947 15.4602947,2.37202105 15.6781895,2.67517895 C15.8752421,2.94044211 15.9725053,3.2796 15.9737715,3.69265263 C15.9744,4.04886316 15.8790316,4.37665263 15.6832421,4.68044211 C15.4577684,5.02654737 15.1735579,5.20023158 14.8280842,5.20086316 L14.7706105,5.20149474 L13.2661895,5.20528421 L13.2579789,2.21096842 L14.7617684,2.20717895 Z M14.8028211,12.1911789 L15.1280842,12.1905474 C17.8994526,12.1829684 19.2845053,11.1351789 19.2788385,9.0516 C19.2762947,8.12633684 19.0811368,7.42717895 18.6965053,6.9516 C18.3125053,6.47665263 17.6638737,6.18170526 16.7487158,6.06423158 L16.7487158,6.03517895 C18.2897684,5.77623158 19.0590316,4.90970526 19.0552421,3.43244211 C19.0520842,2.26528421 18.6680842,1.43917895 17.8975579,0.959810526 C17.2887158,0.578968421 16.3634526,0.390126316 15.1261895,0.393245256 L14.7718737,0.394547368 L10.1114526,0.406547368 L10.1436632,12.2038105 L14.8028211,12.1911789 Z M14.7750316,7.02802105 C15.2461895,7.05770526 15.6106105,7.22444211 15.8676632,7.52696842 C16.1240842,7.83202105 16.2529263,8.2236 16.2541992,8.70612632 C16.2567158,9.73749474 15.7672421,10.2932842 14.7838737,10.3747579 L13.2794526,10.3785474 L13.2712421,7.03244211 L14.7750316,7.02802105 Z" id="Fill-19"></path>
                        <path d="M4.68549474,0.421578947 L0.0257052632,0.434210526 L0.0572842105,12.2308421 L4.71770526,12.2182105 L5.04233684,12.2175789 C7.81370526,12.21 9.19812632,11.1628421 9.19183204,9.07863158 C9.18928421,8.154 8.99538947,7.45421053 8.61075789,6.97926316 C8.22486316,6.50431579 7.5756,6.20873684 6.66423158,6.09189474 L6.66423158,6.06221053 C8.20528421,5.80326316 8.97454737,4.93673684 8.97012632,3.46010526 C8.96696842,2.29231579 8.58170526,1.46621053 7.81307368,0.987473684 C7.20423158,0.606 6.27833684,0.417157895 5.03917895,0.420276836 L4.68549474,0.421578947 Z M4.68423158,5.22852632 L3.18107368,5.23231579 L3.17286316,2.23863158 L4.67602105,2.23421053 C5.06949474,2.24242105 5.37454737,2.39905263 5.59244211,2.70221053 C5.78886316,2.96747368 5.88738947,3.30663158 5.88866478,3.71968421 C5.88991579,4.07589474 5.79265263,4.40368421 5.59749474,4.70747368 C5.37265263,5.05357895 5.08844211,5.22726316 4.7436,5.22789474 L4.68423158,5.22852632 Z M3.18612632,7.05947368 L4.68928421,7.05568421 C5.16044211,7.08536842 5.52423158,7.25147368 5.78065263,7.554 C6.0396,7.85905263 6.16717895,8.25063158 6.16845721,8.73378947 C6.1716,9.76452632 5.6796,10.3203158 4.69875789,10.4017895 L3.1956,10.4062105 L3.18612632,7.05947368 Z" id="Fill-21"></path>
                    </g>
                </g>
            </g>
        </g>
    </g>
</svg>