<?xml version="1.0" encoding="UTF-8" standalone="no"?>
<svg xmlns="http://www.w3.org/2000/svg" viewBox="0 0 28 28">
  <path
    id="path18"
    fill="#ffffff"
    d="m 3,14.1 c 0,2.8 1.1,5.5 3.2,7.6 2.1,2.1 4.9,3.2 7.6,3.2 z M 25,14 h -7 v 2 h 4.8 c -0.7,3 -2.9,5.5 -5.8,6.5 L 5.5,11 C 6.7,7.5 10.1,5 14,5 c 3,0 5.7,1.5 7.4,3.8 L 22.9,7.5 C 20.9,4.8 17.7,3 14,3 8.8,3 4.4,6.7 3.3,11.6 L 16.5,24.8 C 21.3,23.6 25,19.2 25,14 Z"
  />
  <path
    d="M 14,0 C 6.3,0 0,6.3 0,14 0,21.7 6.3,28 14,28 21.7,28 28,21.7 28,14 28,6.3 21.7,0 14,0 Z M 6.2,21.8 C 4.1,19.7 3,16.9 3,14.2 L 13.9,25 C 11.1,24.9 8.3,23.9 6.2,21.8 Z M 16.4,24.7 3.3,11.6 C 4.4,6.7 8.8,3 14,3 c 3.7,0 6.9,1.8 8.9,4.5 L 21.4,8.8 C 19.7,6.5 17,5 14,5 10.1,5 6.8,7.5 5.5,11 L 17,22.5 c 2.9,-1 5.1,-3.5 5.8,-6.5 H 18 v -2 h 7 c 0,5.2 -3.7,9.6 -8.6,10.7 z"
    fill="#663399"
    id="path22"
  />
</svg>
