<?xml version="1.0" encoding="UTF-8" standalone="no"?>
<svg
  xmlns="http://www.w3.org/2000/svg"
  viewBox="0 0 106 28"
  width="106px"
  height="28px"
>
  <path
    id="path12"
    fill="#000000"
    d="m 54,13.7 h -2.8 c 0,0 -4.2,0 -4.2,0 v 2.8 h 3.7 c -0.6,1.9 -2,3.2 -4.6,3.2 -2.9,0 -5,-2.4 -5,-5.3 0,-2.9 2,-5.4 4.9,-5.4 1.6,0 3.2,0.8 4.2,2.1 L 52.5,9.6 C 51,7.5 48.6,6.3 46,6.3 c -4.4,0 -8,3.6 -8,8.1 0,4.5 3.4,8.1 8,8.1 4.6,0 8,-3.6 8,-8.1 0.1,-0.3 0,-0.5 0,-0.7 z M 98.5,20.5 93.7,12 H 97 l 3.1,5.7 2.8,-5.7 h 3.2 l -8,15.3 H 94.9 Z M 85.8,13.3 c 1,-1.4 2.4,-1.6 3.2,-1.6 2.9,0 4.9,2.3 4.9,5.3 0,3 -2,5.3 -5,5.3 -0.6,0 -2.1,-0.1 -3.2,-1.6 V 22 H 83 V 5.2 h 2.8 z M 85.5,17 c 0,1.6 1.1,2.8 2.8,2.8 1.6,0 2.8,-1.2 2.8,-2.8 0,-1.6 -1.1,-2.8 -2.8,-2.8 -1.7,0 -2.8,1.2 -2.8,2.8 z M 79.7,14.4 C 79,13.8 78.4,13.7 78.1,13.7 77.4,13.7 77,14 77,14.5 c 0,0.3 0.1,0.6 0.9,0.9 l 0.7,0.2 c 0.8,0.3 2,0.6 2.5,1.4 0.3,0.4 0.5,1 0.5,1.7 0,0.9 -0.3,1.8 -1.1,2.5 -0.8,0.7 -1.8,1.1 -3,1.1 -2.1,0 -3.2,-1 -3.9,-1.7 l 1.5,-1.7 c 0.6,0.6 1.4,1.2 2.2,1.2 0.8,0 1.4,-0.4 1.4,-1.1 0,-0.6 -0.5,-0.9 -0.9,-1 l -0.6,-0.2 c -0.7,-0.3 -1.5,-0.6 -2.1,-1.2 -0.5,-0.5 -0.8,-1.1 -0.8,-1.9 0,-1 0.5,-1.8 1,-2.3 0.8,-0.6 1.8,-0.7 2.6,-0.7 0.7,0 1.9,0.1 3.2,1.1 z m -8.5,0 V 22 H 68.4 V 14.4 H 67.3 V 12 h 1.1 V 8.6 h 2.8 V 12 h 1.9 v 2.4 z M 62.9,12 h 2.8 v 10 h -2.8 v -1.3 c -1,1.5 -2.3,1.6 -3.1,1.6 -3.1,0 -5.1,-2.4 -5.1,-5.3 0,-3 2,-5.3 4.9,-5.3 0.8,0 2.3,0.1 3.2,1.6 V 12 Z m -5.2,5 c 0,1.6 1.1,2.8 2.8,2.8 1.6,0 2.8,-1.2 2.8,-2.8 0,-1.6 -1.1,-2.8 -2.8,-2.8 -1.6,0 -2.8,1.2 -2.8,2.8 z"
  />
  <path
    id="path18"
    fill="#ffffff"
    d="m 3,14.1 c 0,2.8 1.1,5.5 3.2,7.6 2.1,2.1 4.9,3.2 7.6,3.2 z M 25,14 h -7 v 2 h 4.8 c -0.7,3 -2.9,5.5 -5.8,6.5 L 5.5,11 C 6.7,7.5 10.1,5 14,5 c 3,0 5.7,1.5 7.4,3.8 L 22.9,7.5 C 20.9,4.8 17.7,3 14,3 8.8,3 4.4,6.7 3.3,11.6 L 16.5,24.8 C 21.3,23.6 25,19.2 25,14 Z"
  />
  <path
    d="M 14,0 C 6.3,0 0,6.3 0,14 0,21.7 6.3,28 14,28 21.7,28 28,21.7 28,14 28,6.3 21.7,0 14,0 Z M 6.2,21.8 C 4.1,19.7 3,16.9 3,14.2 L 13.9,25 C 11.1,24.9 8.3,23.9 6.2,21.8 Z M 16.4,24.7 3.3,11.6 C 4.4,6.7 8.8,3 14,3 c 3.7,0 6.9,1.8 8.9,4.5 L 21.4,8.8 C 19.7,6.5 17,5 14,5 10.1,5 6.8,7.5 5.5,11 L 17,22.5 c 2.9,-1 5.1,-3.5 5.8,-6.5 H 18 v -2 h 7 c 0,5.2 -3.7,9.6 -8.6,10.7 z"
    fill="#663399"
    id="path22"
  />
</svg>
